<svg xmlns="http://www.w3.org/2000/svg" xmlns:xlink="http://www.w3.org/1999/xlink" viewBox="0,0,255.98958,255.98958" width="32px" height="32px" fill-rule="nonzero"><g fill="#9bca00" fill-rule="nonzero" stroke="none" stroke-width="1" stroke-linecap="butt" stroke-linejoin="miter" stroke-miterlimit="10" stroke-dasharray="" stroke-dashoffset="0" font-family="none" font-weight="none" font-size="none" text-anchor="none" style="mix-blend-mode: normal"><g transform="scale(8,8)"><path d="M16,3c-7.16786,0 -13,5.83214 -13,13c0,7.16786 5.83214,13 13,13c7.16786,0 13,-5.83214 13,-13c0,-7.16786 -5.83214,-13 -13,-13zM16,5c6.08698,0 11,4.91302 11,11c0,6.08698 -4.91302,11 -11,11c-6.08698,0 -11,-4.91302 -11,-11c0,-6.08698 4.91302,-11 11,-11zM11,8c-0.55228,0 -1,0.44772 -1,1c0,0.55228 0.44772,1 1,1c0.55228,0 1,-0.44772 1,-1c0,-0.55228 -0.44772,-1 -1,-1zM10,11v11h2v-11zM14,11v1v10h4.5c3.02558,0 5.5,-2.47442 5.5,-5.5c0,-3.02558 -2.47442,-5.5 -5.5,-5.5zM16,13h2.5c1.94442,0 3.5,1.55558 3.5,3.5c0,1.94442 -1.55558,3.5 -3.5,3.5h-2.5z"></path></g></g></svg>